<svg width="150" height="32" viewBox="0 0 150 32" fill="none" xmlns="http://www.w3.org/2000/svg">
<rect width="32" height="32" fill="white"/>
<path d="M0 0V32H2.69826C2.69826 24.6438 8.69856 18.6817 16.0985 18.6817C23.5 18.6817 29.4988 24.6453 29.4988 32H32.1971V0H0Z" fill="#4DD684"/>
<path d="M16.0696 25.1199C12.2456 25.1199 9.14648 28.1997 9.14648 31.9999H22.9912C22.9927 28.2012 19.8935 25.1199 16.0696 25.1199Z" fill="#4DD684"/>
<path fill-rule="evenodd" clip-rule="evenodd" d="M149.333 7.45034V11.6924H144.121V24.3669C144.121 26.5632 145.022 27.6614 147.48 27.6614C148.082 27.6614 148.933 27.5625 149.335 27.4621V31.4547C148.933 31.6038 147.73 31.9034 146.126 31.9034C142.013 31.9034 139.406 29.409 139.406 25.0665V11.6924H134.793V7.45034H139.892L139.834 2.42648L144.119 0.304688V7.45034H149.333ZM54.4697 31.9511C47.6012 31.9511 42.0117 26.3674 42.0117 19.5046C42.0117 12.6418 47.6012 7.05969 54.4697 7.05969C57.7977 7.05969 60.9256 8.3541 63.2788 10.7048L60.1387 13.8416C58.6244 12.3289 56.612 11.4955 54.4697 11.4955C50.0491 11.4955 46.4537 15.0887 46.4537 19.5031C46.4537 23.9191 50.0507 27.5123 54.4697 27.5123C56.6105 27.5123 58.6244 26.6788 60.1387 25.1661L63.2788 28.3029C60.9271 30.6567 57.7977 31.9511 54.4697 31.9511ZM94.3889 31.9998C87.5113 31.9998 81.9156 26.41 81.9156 19.5396C81.9156 12.6691 87.5113 7.07938 94.3889 7.07938C101.267 7.07938 106.862 12.6691 106.862 19.5396C106.862 26.41 101.267 31.9998 94.3889 31.9998ZM94.3889 11.5289C89.9668 11.5289 86.3698 15.1221 86.3698 19.5396C86.3698 23.9571 89.9668 27.5503 94.3889 27.5503C98.811 27.5503 102.408 23.9571 102.408 19.5396C102.408 15.1221 98.8095 11.5289 94.3889 11.5289ZM80.0757 12.5792C79.3377 12.2694 78.5278 12.0984 77.6782 12.0984C74.3746 12.0984 71.6746 14.6827 71.4928 17.9385C71.4332 18.3995 71.4011 19.4802 71.4011 19.4802V31.5496H66.6887V7.45961H71.3018V11.668C73.0575 7.96181 76.0646 7.05969 78.5217 7.05969C79.1727 7.05969 79.8251 7.15891 80.0757 7.20928V12.5792ZM122.733 31.951C115.863 31.951 110.275 26.3674 110.275 19.5061C110.275 12.6448 115.865 7.06115 122.733 7.06115C126.061 7.06115 129.189 8.35556 131.542 10.7063L128.402 13.8431C126.888 12.3304 124.876 11.4969 122.733 11.4969C118.313 11.4969 114.717 15.0901 114.717 19.5046C114.717 23.9205 118.314 27.5137 122.733 27.5137C124.874 27.5137 126.888 26.6803 128.402 25.1676L131.542 28.3044C129.189 30.6566 126.061 31.951 122.733 31.951Z" fill="#202020"/>
</svg>
