<svg width="325" height="70" viewBox="0 0 325 70" fill="none" xmlns="http://www.w3.org/2000/svg">
<rect width="70" height="70" fill="white"/>
<path d="M0 0V70H5.87233C5.87233 53.9085 18.931 40.8663 35.0359 40.8663C51.144 40.8663 64.1995 53.9116 64.1995 70H70.0719V0H0Z" fill="#4DD684"/>
<path d="M34.9689 54.95C26.6466 54.95 19.9019 61.6872 19.9019 70H50.0328C50.0359 61.6903 43.2911 54.95 34.9689 54.95Z" fill="#4DD684"/>
<path fill-rule="evenodd" clip-rule="evenodd" d="M324.997 16.2985V25.578H313.652V53.3035C313.652 58.1079 315.614 60.5102 320.962 60.5102C322.273 60.5102 324.125 60.2939 325 60.0743V68.8082C324.125 69.1342 321.508 69.7897 318.016 69.7897C309.066 69.7897 303.392 64.3331 303.392 54.834V25.578H293.352V16.2985H304.45L304.323 5.30878L313.649 0.667358V16.2985H324.997ZM118.54 69.8931C103.592 69.8931 91.4271 57.6789 91.4271 42.6665C91.4271 27.6541 103.592 15.4431 118.54 15.4431C125.783 15.4431 132.59 18.2746 137.712 23.4168L130.878 30.2786C127.582 26.9695 123.202 25.1464 118.54 25.1464C108.919 25.1464 101.094 33.0066 101.094 42.6631C101.094 52.323 108.923 60.1832 118.54 60.1832C123.199 60.1832 127.582 58.36 130.878 55.051L137.712 61.9128C132.594 67.0616 125.783 69.8931 118.54 69.8931ZM205.415 70C190.447 70 178.269 57.7724 178.269 42.7433C178.269 27.7142 190.447 15.4865 205.415 15.4865C220.383 15.4865 232.561 27.7142 232.561 42.7433C232.561 57.7724 220.383 70 205.415 70ZM205.415 25.2199C195.791 25.2199 187.963 33.08 187.963 42.7433C187.963 52.4065 195.791 60.2667 205.415 60.2667C215.039 60.2667 222.867 52.4065 222.867 42.7433C222.867 33.08 215.036 25.2199 205.415 25.2199ZM174.268 27.5172C172.662 26.8393 170.9 26.4653 169.051 26.4653C161.861 26.4653 155.985 32.1184 155.589 39.2406C155.459 40.249 155.39 42.613 155.39 42.613V69.015H145.134V16.3179H155.173V25.5237C158.994 17.4165 165.539 15.4431 170.886 15.4431C172.303 15.4431 173.723 15.6602 174.268 15.7703V27.5172ZM267.101 69.8931C252.149 69.8931 239.988 57.6789 239.988 42.6698C239.988 27.6607 252.152 15.4465 267.101 15.4465C274.343 15.4465 281.151 18.278 286.272 23.4201L279.438 30.2819C276.143 26.9729 271.763 25.1498 267.101 25.1498C257.48 25.1498 249.655 33.0099 249.655 42.6665C249.655 52.3264 257.483 60.1865 267.101 60.1865C271.76 60.1865 276.143 58.3634 279.438 55.0544L286.272 61.9161C281.151 67.0616 274.343 69.8931 267.101 69.8931Z" fill="#202020"/>
</svg>
